<?xml version="1.0" standalone="no"?>
<!DOCTYPE svg PUBLIC "-//W3C//DTD SVG 20010904//EN"
 "http://www.w3.org/TR/2001/REC-SVG-20010904/DTD/svg10.dtd">
<svg version="1.0" xmlns="http://www.w3.org/2000/svg"
 width="152.000000pt" height="152.000000pt" viewBox="0 0 152.000000 152.000000"
 preserveAspectRatio="xMidYMid meet">

<g transform="translate(0.000000,152.000000) scale(0.100000,-0.100000)"
fill="#3F83F8" stroke="none">
<path d="M120 760 l0 -640 640 0 640 0 0 640 0 640 -640 0 -640 0 0 -640z
m990 375 c10 -12 10 -18 0 -30 -18 -22 -218 -22 -226 0 -15 38 1 45 109 45 81
0 107 -3 117 -15z m-260 -70 c10 -12 10 -18 0 -30 -10 -12 -36 -15 -117 -15
-108 0 -124 7 -109 45 4 12 26 15 109 15 81 0 107 -3 117 -15z m-269 -75 c10
-6 19 -17 19 -25 0 -26 -38 -36 -131 -33 -76 2 -94 6 -103 21 -9 15 -7 21 8
33 24 17 177 20 207 4z m40 -229 l135 -129 123 129 123 129 89 0 c56 0 89 -4
89 -11 0 -6 -67 -79 -148 -162 -82 -84 -169 -174 -194 -202 l-46 -50 95 -100
94 -100 -33 -3 c-30 -4 -40 4 -116 84 l-83 88 -92 -92 c-78 -78 -97 -92 -125
-92 -17 0 -32 2 -32 3 0 2 48 52 108 110 l107 107 -207 201 c-115 110 -208
205 -208 210 0 5 42 9 93 9 l94 0 134 -129z"/>
</g>
</svg>
